<svg version="1.1" xmlns="http://www.w3.org/2000/svg" viewBox="0 0 1248.3619573138726 345.12116378175443" width="1248.3619573138726" height="345.12116378175443">
  <!-- svg-source:excalidraw -->
  
  <defs>
    <style class="style-fonts">
      @font-face {
        font-family: "Virgil";
        src: url("https://excalidraw.com/Virgil.woff2");
      }
      @font-face {
        font-family: "Cascadia";
        src: url("https://excalidraw.com/Cascadia.woff2");
      }
    </style>
  </defs>
  <rect x="0" y="0" width="1248.3619573138726" height="345.12116378175443" fill="#ffffff"></rect><g stroke-opacity="0.5" fill-opacity="0.5" stroke-linecap="round" transform="translate(10 302.4078983527747) rotate(0 28 15.5)"><path d="M-0.78 -0.42 C19.22 1.89, 36.69 -0.63, 54.18 0.46 M-0.19 0.37 C21.97 -0.77, 42.47 -1.47, 55.58 -0.98 M57.62 1.83 C55.8 6.93, 57.67 17.34, 57.01 29.26 M55.71 -0.25 C56.07 6.81, 55.46 14.42, 56.05 31.64 M55.79 30.04 C40.27 29.26, 23.34 32.67, 0.94 32.95 M55.67 30.8 C37.8 31.83, 17.86 31.28, -0.67 30.18 M-1.25 30.31 C-1.65 22.47, 0.24 14.25, 0.15 1.58 M0.1 31.14 C0.49 24.17, -0.3 17, -0.97 -0.19" stroke="#000000" stroke-width="2" fill="none"></path></g><g stroke-opacity="0.5" fill-opacity="0.5" transform="translate(32.5 308.4078983527747) rotate(0 5.5 9.5)"><text x="5.5" y="15" font-family="Cascadia, Segoe UI Emoji" font-size="16px" fill="#000000" text-anchor="middle" style="white-space: pre;" direction="ltr">1</text></g><g stroke-opacity="0.5" fill-opacity="0.5" stroke-linecap="round" transform="translate(92.36740775051692 304.12116378175443) rotate(0 28 15.5)"><path d="M-0.24 -1.75 C17.52 0.17, 37.97 -0.27, 54.48 -1.02 M-0.48 0.78 C20.94 0.08, 41.01 -1.23, 56.17 0.07 M57.39 -0.83 C55.87 8.85, 56.65 12.99, 57.27 29.41 M55.43 0.89 C56.72 9.86, 56.34 20.02, 55.12 30.29 M55.55 32.65 C39.21 30.53, 22.7 32.43, -1.16 31.98 M56.29 31.21 C39.3 30.54, 22.59 31.64, -0.49 31.02 M-1.59 32.36 C2.14 20.84, 0.82 12.81, -0.76 -0.16 M-0.05 30.24 C-0.66 23.22, -0.43 14.37, 0.25 0.79" stroke="#000000" stroke-width="2" fill="none"></path></g><g stroke-opacity="0.5" fill-opacity="0.5" transform="translate(114.86740775051692 310.12116378175443) rotate(0 5.5 9.5)"><text x="5.5" y="15" font-family="Cascadia, Segoe UI Emoji" font-size="16px" fill="#000000" text-anchor="middle" style="white-space: pre;" direction="ltr">1</text></g><g stroke-opacity="0.5" fill-opacity="0.5" stroke-linecap="round" transform="translate(93.37995277575101 269.6946329237949) rotate(0 28 15.5)"><path d="M-1.16 0.98 C14.91 -0.04, 30.94 0.25, 56.41 0.9 M-0.49 0.02 C11.77 -0.76, 23.48 -0.93, 56.68 0.97 M55.24 -0.16 C55.4 5.82, 56.31 13.06, 54.48 29.45 M56.25 0.79 C55.54 10.4, 56.2 21.86, 56.05 31.23 M56.1 31.78 C40.29 32.6, 25.86 32.25, -0.89 32.24 M56.56 31.43 C42.35 31.22, 28.24 32.06, -0.6 30.28 M-1.36 32.1 C0.69 19.4, -1.28 8.27, -0.39 -1.08 M0.47 30.17 C0.36 20.23, -1.08 9.82, 0.2 0.46" stroke="#000000" stroke-width="2" fill="none"></path></g><g stroke-opacity="0.5" fill-opacity="0.5" transform="translate(115.87995277575101 275.6946329237949) rotate(0 5.5 9.5)"><text x="5.5" y="15" font-family="Cascadia, Segoe UI Emoji" font-size="16px" fill="#000000" text-anchor="middle" style="white-space: pre;" direction="ltr">2</text></g><g stroke-opacity="0.5" fill-opacity="0.5" stroke-linecap="round" transform="translate(172.29689805602334 304.11090266708976) rotate(0 28 15.5)"><path d="M1.1 -1.59 C20.11 -1, 44.21 0.33, 54.67 -0.54 M0.26 -0.05 C14.52 1.01, 28.91 0.49, 56.68 0.2 M55.07 0.66 C54.98 10.79, 55.74 19.18, 55.73 29.35 M56.35 0.95 C55.2 10.35, 55.16 22.54, 56.73 30.34 M56.86 32.26 C43.69 30.73, 28.65 33.06, -0.84 29.58 M56.98 31.09 C36.85 31.8, 20.24 30.58, 0.36 31 M0.57 29.48 C1.73 25.99, -0.68 16.65, 0.69 -0.17 M-0.09 31.05 C0.01 23.51, 0.09 15.48, 0.25 0.6" stroke="#000000" stroke-width="2" fill="none"></path></g><g stroke-opacity="0.5" fill-opacity="0.5" transform="translate(194.79689805602334 310.11090266708976) rotate(0 5.5 9.5)"><text x="5.5" y="15" font-family="Cascadia, Segoe UI Emoji" font-size="16px" fill="#000000" text-anchor="middle" style="white-space: pre;" direction="ltr">1</text></g><g stroke-opacity="0.5" fill-opacity="0.5" stroke-linecap="round" transform="translate(172.29689805602334 270.69691683436434) rotate(0 28 15.5)"><path d="M-0.06 -1.33 C11.31 -1.1, 25.54 -1.4, 56.52 -0.1 M0.13 0.68 C19.53 -0.07, 39.38 -0.02, 55.53 0.33 M54.29 -0.27 C54.41 8.38, 55.09 16.68, 56.7 32.9 M56.83 0.73 C55.18 6.67, 55.27 15.52, 56.43 31.63 M57.51 30.16 C34.7 31.38, 16.67 31.71, 1.96 31.19 M55.34 31.36 C44.09 30.48, 31.34 31.89, 0.28 30.24 M-1.74 31.69 C-0.37 18.2, -0.92 8.44, -0.19 0.1 M-0.73 31.25 C0.63 22.2, -0.63 12.24, 0.8 0.32" stroke="#000000" stroke-width="2" fill="none"></path></g><g stroke-opacity="0.5" fill-opacity="0.5" transform="translate(194.79689805602334 276.69691683436434) rotate(0 5.5 9.5)"><text x="5.5" y="15" font-family="Cascadia, Segoe UI Emoji" font-size="16px" fill="#000000" text-anchor="middle" style="white-space: pre;" direction="ltr">2</text></g><g stroke-opacity="0.5" fill-opacity="0.5" stroke-linecap="round" transform="translate(172.29689805602357 237.28293100163904) rotate(0 28 15.5)"><path d="M-0.18 -0.05 C14.82 0.55, 33.75 0.44, 54.68 -1.55 M0.57 1 C22.11 -0.14, 42.81 0.68, 55.88 0.74 M54.12 -1.38 C56.19 9.05, 57.63 15.89, 54.33 32.31 M56.71 0.9 C55.65 11.11, 56.76 23.39, 55.43 30.13 M56.97 32.89 C38.3 30.46, 19.76 29.52, -0.09 31.18 M55.64 31.4 C41.81 30, 26.7 31.13, -0.75 31.39 M0.2 30.59 C0.13 20.59, -0.75 9.22, 1.39 1.81 M-0.9 30.52 C-0.83 22.91, 0.23 13.17, -0.21 0.57" stroke="#000000" stroke-width="2" fill="none"></path></g><g stroke-opacity="0.5" fill-opacity="0.5" transform="translate(194.79689805602357 243.28293100163904) rotate(0 5.5 9.5)"><text x="5.5" y="15" font-family="Cascadia, Segoe UI Emoji" font-size="16px" fill="#000000" text-anchor="middle" style="white-space: pre;" direction="ltr">3</text></g><g stroke-opacity="0.5" fill-opacity="0.5" stroke-linecap="round" transform="translate(255.25750641752654 302.9885443466116) rotate(0 28 15.5)"><path d="M-1.51 0.32 C20.91 -0.68, 38.85 0.72, 55.82 -0.35 M-0.51 0.63 C17.04 0.03, 35.19 -1.32, 56.24 -0.05 M56.04 1.57 C57.28 9.11, 56.61 20.18, 55.14 31.05 M55.71 -0.24 C55.89 10.07, 56.57 20.83, 55.11 30.53 M54.49 31.11 C39.47 30.85, 26.58 31.62, -0.05 30.6 M55.01 30.76 C43.07 31.14, 27.52 30.65, -0.18 30.72 M0.29 29.95 C0.91 23.82, 1.82 17.54, 0.85 -1.47 M0.04 31.53 C-0.98 23.45, -0.81 14.29, -0.05 0.55" stroke="#000000" stroke-width="2" fill="none"></path></g><g stroke-opacity="0.5" fill-opacity="0.5" transform="translate(277.75750641752643 308.9885443466116) rotate(0 5.5 9.5)"><text x="5.5" y="15" font-family="Cascadia, Segoe UI Emoji" font-size="16px" fill="#000000" text-anchor="middle" style="white-space: pre;" direction="ltr">1</text></g><g stroke-opacity="0.5" fill-opacity="0.5" stroke-linecap="round" transform="translate(256.2700514427605 268.5620134886521) rotate(0 28 15.5)"><path d="M1.99 -0.92 C15.43 0.39, 28.64 -0.44, 56.43 -0.42 M-0.96 0.55 C21.18 -1.15, 44.26 -0.4, 56.03 -0.4 M57.4 -0.3 C56.74 12.92, 55.14 23.16, 56.56 32.09 M55.72 -0.09 C56.31 11.29, 55.02 21.1, 55.65 31.94 M54.31 30.76 C38.53 31.56, 20.5 30.63, -1.07 30.92 M56.89 31.19 C38.83 30.57, 23.2 30.59, -0.61 30.19 M0.66 31.23 C1.52 24.27, 0.81 13.36, -0.67 1.64 M-0.73 31.72 C-0.56 18.46, -0.06 6.84, -0.44 -0.33" stroke="#000000" stroke-width="2" fill="none"></path></g><g stroke-opacity="0.5" fill-opacity="0.5" transform="translate(278.7700514427604 274.5620134886521) rotate(0 5.5 9.5)"><text x="5.5" y="15" font-family="Cascadia, Segoe UI Emoji" font-size="16px" fill="#000000" text-anchor="middle" style="white-space: pre;" direction="ltr">2</text></g><g stroke-opacity="0.5" fill-opacity="0.5" stroke-linecap="round" transform="translate(333.78557359356773 302.228005040917) rotate(0 28 15.5)"><path d="M-1.21 -1.05 C12.19 0.08, 26.26 0.58, 56.43 -0.09 M0.74 -0.39 C13.95 0.06, 25.6 0.18, 56.17 -0.56 M55.64 1.79 C56.59 8.37, 56.09 17.22, 55.88 29.16 M56.1 -0.49 C55.9 10.51, 56.23 19.9, 55.11 30.4 M55.24 31.66 C39.15 29.02, 25.75 31.45, -0.9 31.33 M56.32 31.48 C43.69 31.16, 31.74 30.32, 0.79 30.06 M-0.82 30.14 C-0.54 20.45, -1.47 7.52, 2 0.07 M0.68 30.17 C0.31 24.59, -0.81 16.13, 0.82 0.28" stroke="#000000" stroke-width="2" fill="none"></path></g><g stroke-opacity="0.5" fill-opacity="0.5" transform="translate(356.28557359356773 308.228005040917) rotate(0 5.5 9.5)"><text x="5.5" y="15" font-family="Cascadia, Segoe UI Emoji" font-size="16px" fill="#000000" text-anchor="middle" style="white-space: pre;" direction="ltr">1</text></g><g stroke-opacity="0.5" fill-opacity="0.5" stroke-linecap="round" transform="translate(333.78557359356773 268.8140192081915) rotate(0 28 15.5)"><path d="M-1.45 -0.08 C14.21 0.72, 30.89 0.21, 54.68 -0.95 M0.85 -0.45 C11.1 -0.11, 23.57 -0.34, 56.06 0.61 M56.4 -1.12 C55.85 4.47, 55.82 10.62, 56.59 31.04 M55.89 0.3 C56.25 8.8, 55.15 18.04, 55.69 31.25 M54.23 29.54 C44.23 32.14, 31.73 31.51, -1.79 31.1 M55.49 31.03 C37.27 30.47, 20.66 30.33, 0.86 30.06 M-0.83 32.4 C-1.63 20.58, 2.12 9.37, -1.31 1.15 M0.49 31.87 C-0.84 23.81, 0.61 17.54, 0.38 -0.79" stroke="#000000" stroke-width="2" fill="none"></path></g><g stroke-opacity="0.5" fill-opacity="0.5" transform="translate(356.28557359356773 274.8140192081915) rotate(0 5.5 9.5)"><text x="5.5" y="15" font-family="Cascadia, Segoe UI Emoji" font-size="16px" fill="#000000" text-anchor="middle" style="white-space: pre;" direction="ltr">2</text></g><g stroke-opacity="0.5" fill-opacity="0.5" stroke-linecap="round" transform="translate(333.78557359356796 235.4000333754662) rotate(0 28 15.5)"><path d="M-1.01 0.42 C14.3 -0.06, 26.41 -0.93, 54.18 1.49 M-0.6 -0.33 C14.76 -0.31, 29.25 0.86, 55.01 -0.18 M55.9 -1.75 C55.94 10.23, 56.65 24.18, 56.01 31.21 M56.22 -0.52 C55.08 7.19, 55.66 15.83, 55.09 30.62 M55.91 31.96 C36.46 30.92, 16.94 30.69, 0.45 31.64 M55.34 30.2 C37.28 30.08, 17.83 30.08, 0.5 30.59 M-1.76 31.43 C2.12 23.1, -1.18 16.22, -1.57 1.36 M-0.63 30.69 C0.67 24.56, 0.22 16.76, 0.5 0.49" stroke="#000000" stroke-width="2" fill="none"></path></g><g stroke-opacity="0.5" fill-opacity="0.5" transform="translate(356.28557359356796 241.4000333754662) rotate(0 5.5 9.5)"><text x="5.5" y="15" font-family="Cascadia, Segoe UI Emoji" font-size="16px" fill="#000000" text-anchor="middle" style="white-space: pre;" direction="ltr">4</text></g><g stroke-opacity="0.5" fill-opacity="0.5" stroke-linecap="round" transform="translate(415.8780705872575 302.9064554292947) rotate(0 28 15.5)"><path d="M1.57 0.45 C19.91 2.27, 40.65 -1.19, 57.14 0.88 M0.7 -0.49 C18.04 -0.89, 34.94 0.66, 55.19 0.54 M57.02 0.48 C56.28 9.92, 55.38 18.52, 57.96 32.51 M56.34 0.27 C54.92 10.08, 56.31 21.69, 55.71 31.95 M57.27 30.38 C34.37 31.18, 12.99 29.61, 0.71 31.58 M55.04 30.62 C33.73 31.74, 12.25 32.04, 0.16 31.44 M0.7 31.5 C-1.38 23.93, 0.71 14.83, -1.63 0.19 M0.88 30.91 C0.02 21.51, -0.08 12.12, 0.31 0.74" stroke="#000000" stroke-width="2" fill="none"></path></g><g stroke-opacity="0.5" fill-opacity="0.5" transform="translate(438.3780705872575 308.9064554292947) rotate(0 5.5 9.5)"><text x="5.5" y="15" font-family="Cascadia, Segoe UI Emoji" font-size="16px" fill="#000000" text-anchor="middle" style="white-space: pre;" direction="ltr">1</text></g><g stroke-opacity="0.5" fill-opacity="0.5" stroke-linecap="round" transform="translate(415.8780705872575 269.49246959656915) rotate(0 28 15.5)"><path d="M-0.74 1.93 C12.69 -1.66, 27.82 0.76, 56.21 1.39 M0.66 -1 C15.87 0.82, 30.57 0.82, 55.85 0.07 M56.26 1.09 C55.51 8.39, 58.12 16.57, 57.07 29.07 M55.22 -0.87 C56.71 9.36, 55.81 20.13, 56.92 31.64 M56.33 31.32 C41.52 29.58, 25.91 31.4, 1.79 29.95 M55.54 31.24 C33.97 31.31, 12.38 31.23, -0.25 31.7 M-1.17 32.46 C0.82 22.59, -1.74 12.6, 0.02 -0.06 M0.02 30.85 C-0.36 19.34, 0.03 8.83, -0.93 0.98" stroke="#000000" stroke-width="2" fill="none"></path></g><g stroke-opacity="0.5" fill-opacity="0.5" transform="translate(438.3780705872575 275.49246959656915) rotate(0 5.5 9.5)"><text x="5.5" y="15" font-family="Cascadia, Segoe UI Emoji" font-size="16px" fill="#000000" text-anchor="middle" style="white-space: pre;" direction="ltr">2</text></g><g stroke-opacity="0.5" fill-opacity="0.5" stroke-linecap="round" transform="translate(415.8780705872575 236.07848376384385) rotate(0 28 15.5)"><path d="M-0.65 -1.54 C19.19 0.34, 36.31 0.86, 55.6 1.4 M0.18 0.55 C13.26 1.1, 27.98 0.63, 55.43 0.51 M55.35 0.86 C58 11.56, 57.11 18.17, 56.19 31.68 M56.61 -0.23 C55.47 11.09, 56.68 20.91, 55.75 31.64 M56.92 29.75 C41.63 31.67, 27.63 30.04, 1.82 29.08 M55.86 31.53 C41.48 31.58, 26.39 31.83, 0 31.35 M0.93 31.89 C-1.45 21.12, 0.2 10.8, 1.39 1.75 M-0.09 30.79 C0.3 22.71, -0.93 13.92, 0.12 0.69" stroke="#000000" stroke-width="2" fill="none"></path></g><g stroke-opacity="0.5" fill-opacity="0.5" transform="translate(438.3780705872575 242.07848376384385) rotate(0 5.5 9.5)"><text x="5.5" y="15" font-family="Cascadia, Segoe UI Emoji" font-size="16px" fill="#000000" text-anchor="middle" style="white-space: pre;" direction="ltr">4</text></g><g stroke-opacity="0.5" fill-opacity="0.5" stroke-linecap="round" transform="translate(416.55652097563575 203.68278192394177) rotate(0 28 15.500000000000014)"><path d="M-1.52 -0.34 C19.15 0.06, 41.29 -0.16, 55.25 1.1 M0.99 0.04 C17.5 -0.08, 34.85 -0.31, 56.09 -0.38 M56.98 1.27 C55.27 8.93, 56.99 16.19, 54.44 29.97 M55.61 -0.71 C55.34 10.4, 55.38 20.26, 55.59 31.66 M56.87 29.65 C39.06 29.42, 18.92 29.27, -1.91 32.15 M56.62 30.07 C34.56 30.55, 13.38 31.57, -0.97 30.09 M-1.12 29.22 C1.9 21.09, -1.84 9.94, 1.95 -1.55 M0.32 30.29 C-0.47 22.11, 0.73 10.54, -0.8 0.38" stroke="#000000" stroke-width="2" fill="none"></path></g><g stroke-opacity="0.5" fill-opacity="0.5" transform="translate(439.05652097563575 209.68278192394177) rotate(0 5.5 9.500000000000014)"><text x="5.5" y="15" font-family="Cascadia, Segoe UI Emoji" font-size="16px" fill="#000000" text-anchor="middle" style="white-space: pre;" direction="ltr">5</text></g><g stroke-opacity="0.5" fill-opacity="0.5" stroke-linecap="round" transform="translate(504.41584627053476 302.82149702818316) rotate(0 28 15.5)"><path d="M-1.15 -1.03 C16.32 1.94, 31.05 0.19, 57.83 1.66 M-0.67 -0.03 C13.2 -0.14, 25.71 -0.38, 55.5 0.18 M57.05 -1.55 C56.11 9.83, 55.02 17.27, 56.22 29.11 M55.37 0.48 C55.89 6.56, 56.59 13.45, 55.2 30.24 M57.3 32.78 C41.56 31.95, 29.33 33.01, -1.79 30.43 M56.96 31.01 C42.75 30.42, 30.51 30.43, 0.42 31.77 M-0.81 32.94 C1.57 23.75, 0.54 17.07, -1.23 0.61 M0.36 31.28 C0.55 23.35, -0.67 14.26, 0.74 0.26" stroke="#000000" stroke-width="2" fill="none"></path></g><g stroke-opacity="0.5" fill-opacity="0.5" transform="translate(526.9158462705348 308.82149702818316) rotate(0 5.5 9.5)"><text x="5.5" y="15" font-family="Cascadia, Segoe UI Emoji" font-size="16px" fill="#000000" text-anchor="middle" style="white-space: pre;" direction="ltr">1</text></g><g stroke-opacity="0.5" fill-opacity="0.5" stroke-linecap="round" transform="translate(504.41584627053476 269.40751119545763) rotate(0 28 15.5)"><path d="M1.29 1.97 C18.18 0.52, 36.18 1.95, 54.64 0.8 M0.22 0 C17.98 -0.22, 35.96 0.19, 55.93 0.21 M56.04 0.76 C55.12 6, 56.38 11.85, 54.36 31.82 M55.77 -0.2 C56.26 11.06, 55 21.52, 55.55 31.75 M55.85 31.5 C36.58 33.05, 11.54 30.93, -1.4 32.11 M55.63 30.61 C41.44 30.64, 26.79 31.78, -0.53 30.9 M1.54 31.41 C0.63 24.83, -1.1 16.48, -0.76 -1.76 M0.28 31.47 C-1.05 23.99, 0.63 18.22, 0.11 0.29" stroke="#000000" stroke-width="2" fill="none"></path></g><g stroke-opacity="0.5" fill-opacity="0.5" transform="translate(526.9158462705348 275.40751119545763) rotate(0 5.5 9.5)"><text x="5.5" y="15" font-family="Cascadia, Segoe UI Emoji" font-size="16px" fill="#000000" text-anchor="middle" style="white-space: pre;" direction="ltr">2</text></g><g stroke-opacity="0.5" fill-opacity="0.5" stroke-linecap="round" transform="translate(504.41584627053476 235.99352536273233) rotate(0 28 15.5)"><path d="M1.01 0.23 C15.76 1.11, 26.49 0.25, 56.51 -1.35 M-0.25 -0.23 C16.14 0.18, 33.19 0.21, 55.22 0.52 M54.96 -0.87 C56.23 5.01, 54.37 14.62, 57.19 29.73 M56.46 -0.08 C55.13 10.02, 55.48 22.32, 56.81 31.65 M57.91 32.55 C32.42 30.57, 11.02 32.25, -0.71 32.91 M56.26 30.63 C39.57 31.56, 21.76 30.68, -0.56 30.6 M0.51 32.39 C-1.47 19.3, -1 4.62, -1.8 0.73 M-0.94 30.5 C0.65 21.1, 0.02 10.97, 0.62 0.41" stroke="#000000" stroke-width="2" fill="none"></path></g><g stroke-opacity="0.5" fill-opacity="0.5" transform="translate(526.9158462705348 241.99352536273233) rotate(0 5.5 9.5)"><text x="5.5" y="15" font-family="Cascadia, Segoe UI Emoji" font-size="16px" fill="#000000" text-anchor="middle" style="white-space: pre;" direction="ltr">4</text></g><g stroke-opacity="0.5" fill-opacity="0.5" stroke-linecap="round" transform="translate(505.094296658913 203.5978235228302) rotate(0 28 15.499999999999986)"><path d="M1.83 1.66 C20.96 0.74, 45.17 -1.41, 55.94 0.45 M-0.5 0.18 C16.72 0.34, 32.8 0.65, 55.23 0.02 M56.22 -1.89 C54.2 11.29, 57.03 19.68, 56.96 30.54 M55.2 -0.76 C55.7 9.41, 56.95 17.98, 56.89 30.92 M54.21 30.43 C36.41 32.55, 18.91 33.35, 0.02 30.25 M56.42 31.77 C40.83 30.69, 26.17 30.39, 0.97 31.77 M-1.23 31.61 C-0.84 19.31, -1.87 11.85, 0.55 0.56 M0.74 31.26 C0.4 20.52, 0.91 9.88, -0.71 0.31" stroke="#000000" stroke-width="2" fill="none"></path></g><g stroke-opacity="0.5" fill-opacity="0.5" transform="translate(527.594296658913 209.5978235228302) rotate(0 5.5 9.499999999999986)"><text x="5.5" y="15" font-family="Cascadia, Segoe UI Emoji" font-size="16px" fill="#000000" text-anchor="middle" style="white-space: pre;" direction="ltr">5</text></g><g stroke-opacity="0.5" fill-opacity="0.5" stroke-linecap="round" transform="translate(506.11197224147895 172.4740640585719) rotate(0 28 15.5)"><path d="M-0.28 0.37 C21.05 -1.72, 41.1 1.19, 55.39 0.29 M0.62 0.69 C13.77 0.67, 25.91 -0.48, 56.74 -0.33 M57.38 1.08 C55.11 9.98, 55.09 19.98, 54.64 32.89 M56.94 0.94 C55.61 7.02, 55.67 12.35, 55.99 31.44 M54.42 30.32 C43.15 29.98, 27.22 32.45, 1.42 29.09 M55.21 31.26 C38.61 32.35, 23.36 31.31, -0.25 30.58 M0.03 29.91 C-0.52 20.05, -0.07 13.53, -0.67 0.69 M0.41 30.2 C0.53 22.69, -0.86 12.82, 0.23 0.94" stroke="#000000" stroke-width="2" fill="none"></path></g><g stroke-opacity="0.5" fill-opacity="0.5" transform="translate(528.611972241479 178.4740640585719) rotate(0 5.5 9.5)"><text x="5.5" y="15" font-family="Cascadia, Segoe UI Emoji" font-size="16px" fill="#000000" text-anchor="middle" style="white-space: pre;" direction="ltr">6</text></g><g stroke-opacity="0.5" fill-opacity="0.5" stroke-linecap="round" transform="translate(592.6143967596233 300.7861458630504) rotate(0 28 15.5)"><path d="M-1.3 -0.86 C19.53 1.81, 40.9 0.73, 55.73 0.84 M0.88 -0.21 C17.65 -0.9, 36.84 0.53, 56.48 -0.75 M55.36 -0.12 C57.38 5.75, 55.5 12.48, 55.08 31.71 M56.4 0.8 C55.99 9.16, 55.69 17.99, 56.27 30.19 M55.99 29.97 C43.32 29.51, 25.71 32.25, -0.18 32.57 M55.1 30.5 C38.92 30.31, 21.51 30.59, -0.9 31.89 M1.26 30.06 C-0.79 20.4, 0.6 13.32, -1.82 -1.13 M-0.58 30.32 C-1.1 22.96, -0.03 14.8, -0.86 -0.37" stroke="#000000" stroke-width="2" fill="none"></path></g><g stroke-opacity="0.5" fill-opacity="0.5" transform="translate(615.1143967596233 306.7861458630504) rotate(0 5.5 9.5)"><text x="5.5" y="15" font-family="Cascadia, Segoe UI Emoji" font-size="16px" fill="#000000" text-anchor="middle" style="white-space: pre;" direction="ltr">1</text></g><g stroke-opacity="0.5" fill-opacity="0.5" stroke-linecap="round" transform="translate(592.6143967596233 267.3721600303249) rotate(0 28 15.5)"><path d="M-1.57 1.43 C11.77 0.59, 25.88 1.08, 56.47 1.76 M-0.48 -0.96 C16.77 0.59, 32.85 -0.63, 55.08 0.46 M57.24 -0.71 C55.25 7.93, 54.99 17.43, 55.6 29.6 M56.2 0.49 C56.03 11.51, 56.39 20.92, 55.53 30.5 M57.47 29.34 C35.52 31.79, 18.87 32.28, 0 29 M55.72 30.41 C39.37 30.42, 23.6 31.61, -0.1 30.51 M-0.94 29.39 C0.25 21.71, -2.02 10.68, -1.09 1.92 M-0.81 30.57 C0.45 23.21, -0.68 17.03, 0.68 0.93" stroke="#000000" stroke-width="2" fill="none"></path></g><g stroke-opacity="0.5" fill-opacity="0.5" transform="translate(615.1143967596233 273.3721600303249) rotate(0 5.5 9.5)"><text x="5.5" y="15" font-family="Cascadia, Segoe UI Emoji" font-size="16px" fill="#000000" text-anchor="middle" style="white-space: pre;" direction="ltr">2</text></g><g stroke-opacity="0.5" fill-opacity="0.5" stroke-linecap="round" transform="translate(592.6143967596233 233.9581741975996) rotate(0 28 15.5)"><path d="M-1.31 0.35 C14.12 0.44, 29.26 1.36, 55.78 1.76 M0.59 0.47 C16.1 -0.21, 30.31 1, 55.7 -0.32 M55.35 -0.43 C55.28 9.82, 55.79 16.82, 57.01 31.81 M55.9 0.65 C56.33 10.97, 55.59 23.06, 56.3 31 M54 32.08 C41.91 32.1, 28.18 28.54, -0.38 29.2 M55.12 30.7 C41.11 31.56, 27.91 30.18, 0.1 31.63 M0.45 31.3 C-1.68 22.04, -0.95 17.25, -1.61 -1.16 M0.27 30.01 C-0.61 23.45, 0.93 17.57, -0.88 -0.49" stroke="#000000" stroke-width="2" fill="none"></path></g><g stroke-opacity="0.5" fill-opacity="0.5" transform="translate(615.1143967596233 239.9581741975996) rotate(0 5.5 9.5)"><text x="5.5" y="15" font-family="Cascadia, Segoe UI Emoji" font-size="16px" fill="#000000" text-anchor="middle" style="white-space: pre;" direction="ltr">4</text></g><g stroke-opacity="0.5" fill-opacity="0.5" stroke-linecap="round" transform="translate(593.2928471480016 201.56247235769757) rotate(0 28 15.5)"><path d="M-0.27 0.84 C21.29 1.66, 41.41 1.66, 55.58 -0.96 M0.48 -0.75 C10.49 0.19, 22.51 -0.58, 55.94 0.62 M55.08 0.71 C55.5 6.81, 56.91 17.21, 57.6 31.41 M56.27 -0.81 C55.5 10.33, 56.27 21.64, 55.48 31.73 M55.82 32.57 C43.85 29.3, 31.33 29.51, -1 30.44 M55.1 31.89 C42.39 30.34, 29.08 31.46, -0.47 30.53 M-1.82 29.87 C-1.16 26.13, -1.68 16.24, -1.37 -1.61 M-0.86 30.63 C0.6 23.97, -0.97 14.6, -0.12 -0.33" stroke="#000000" stroke-width="2" fill="none"></path></g><g stroke-opacity="0.5" fill-opacity="0.5" transform="translate(615.7928471480016 207.56247235769757) rotate(0 5.5 9.5)"><text x="5.5" y="15" font-family="Cascadia, Segoe UI Emoji" font-size="16px" fill="#000000" text-anchor="middle" style="white-space: pre;" direction="ltr">5</text></g><g stroke-opacity="0.5" fill-opacity="0.5" stroke-linecap="round" transform="translate(667.5831646753486 300.1926538757843) rotate(0 28 15.5)"><path d="M-0.42 -0.95 C9.65 0.86, 22.2 0.02, 55.31 -1.61 M0.39 -0.95 C11.94 -0.19, 24.87 1.06, 55.21 -0.26 M55.17 -1.14 C55.11 7.34, 57.57 15.45, 56.09 29.46 M56.66 0.37 C55.3 6.85, 56.84 13.49, 55.17 31.25 M54.08 30.75 C32.33 29.85, 14.15 29.66, 0.21 31.07 M55.47 31.74 C34.5 29.82, 12.57 31.39, -0.37 30.29 M0.29 30.57 C0.63 22.01, -0.49 8.04, 1.66 0.12 M-0.97 31.14 C-0.09 20.64, -1.05 10.15, 0.55 0.79" stroke="#000000" stroke-width="2" fill="none"></path></g><g stroke-opacity="0.5" fill-opacity="0.5" transform="translate(690.0831646753486 306.1926538757843) rotate(0 5.5 9.5)"><text x="5.5" y="15" font-family="Cascadia, Segoe UI Emoji" font-size="16px" fill="#000000" text-anchor="middle" style="white-space: pre;" direction="ltr">1</text></g><g stroke-opacity="0.5" fill-opacity="0.5" stroke-linecap="round" transform="translate(667.5831646753486 266.77866804305876) rotate(0 28 15.5)"><path d="M-1.96 0.81 C15.3 0.24, 31.95 -1.34, 54.57 0.17 M-0.85 -0.53 C12.59 1.25, 25.82 0.28, 55.39 -0.75 M55.34 -0.08 C57.67 9.9, 55.96 17.05, 54.32 31.28 M55.25 0.16 C57 10.91, 55.38 21.88, 56.88 31.43 M54.07 30.06 C42.95 29.81, 26.86 31, 1.82 32.85 M56.4 30.17 C43.03 32.15, 28.93 30.71, 0.5 30.38 M0.44 32.87 C-0.73 23.29, 1.61 18.2, 0.63 1.26 M0.1 30.91 C-0.56 21.92, 0.85 14.22, -0.63 -0.88" stroke="#000000" stroke-width="2" fill="none"></path></g><g stroke-opacity="0.5" fill-opacity="0.5" transform="translate(690.0831646753486 272.77866804305876) rotate(0 5.5 9.5)"><text x="5.5" y="15" font-family="Cascadia, Segoe UI Emoji" font-size="16px" fill="#000000" text-anchor="middle" style="white-space: pre;" direction="ltr">2</text></g><g stroke-opacity="0.5" fill-opacity="0.5" stroke-linecap="round" transform="translate(667.5831646753486 233.36468221033346) rotate(0 28 15.5)"><path d="M-1.02 -0.03 C13.44 -1.83, 26.84 -0.06, 54.75 0.78 M-0.72 0.72 C10.69 0.04, 22.37 -0.45, 56 -0.42 M57.8 0.61 C55.99 5.99, 54.22 15.34, 56.98 32.32 M56.79 0.09 C54.94 10.71, 56.65 21.33, 55.62 30.04 M57.62 29.88 C40.1 30.81, 25.6 32.59, -1.23 29.94 M56.38 31.73 C34.69 29.83, 14.62 29.92, -0.92 31.15 M-0.68 29.75 C1.59 22.49, 0.56 15, -0.33 -1.93 M-0.86 30.7 C0.52 22.06, -0.66 10.68, -0.07 0.22" stroke="#000000" stroke-width="2" fill="none"></path></g><g stroke-opacity="0.5" fill-opacity="0.5" transform="translate(690.0831646753486 239.36468221033346) rotate(0 5.5 9.5)"><text x="5.5" y="15" font-family="Cascadia, Segoe UI Emoji" font-size="16px" fill="#000000" text-anchor="middle" style="white-space: pre;" direction="ltr">4</text></g><g stroke-opacity="0.5" fill-opacity="0.5" stroke-linecap="round" transform="translate(745.9441845329613 301.4645962514282) rotate(0 28 15.5)"><path d="M1.17 -1.81 C16.63 -0.02, 37.57 -0.27, 57.95 0.79 M0.02 0.82 C20.66 0.64, 41.21 -0.03, 56.98 -0.25 M56.31 -0.22 C56.12 11.56, 55.02 21.4, 55.07 32.37 M55.11 -0.34 C55.14 8.45, 55.55 14.9, 55.3 30.6 M55.58 31.45 C36.63 32.65, 19.5 30.57, 0.19 32.23 M55.32 31.05 C37.46 31.63, 17.65 30.2, 0.23 31.93 M0.18 30.81 C-0.86 21.19, -2.08 16.42, -0.27 1.21 M-0.08 30.32 C0.78 22.7, 1.17 13.26, 0.92 -0.26" stroke="#000000" stroke-width="2" fill="none"></path></g><g stroke-opacity="0.5" fill-opacity="0.5" transform="translate(768.4441845329613 307.4645962514282) rotate(0 5.5 9.5)"><text x="5.5" y="15" font-family="Cascadia, Segoe UI Emoji" font-size="16px" fill="#000000" text-anchor="middle" style="white-space: pre;" direction="ltr">1</text></g><g stroke-opacity="0.5" fill-opacity="0.5" stroke-linecap="round" transform="translate(745.9441845329613 268.05061041870266) rotate(0 28 15.5)"><path d="M-1.39 0.07 C19.32 0.34, 37.53 1.3, 57.23 -0.4 M0.42 0.43 C15.44 -0.69, 30.41 -0.71, 56.38 0.55 M55.95 1.07 C54.9 7.4, 55.12 15.32, 55.07 29.69 M55.34 0.59 C55.48 9.86, 55.02 20.93, 56.11 31.72 M54.04 32.44 C35.49 30.49, 18.52 32.35, 0.88 32.25 M56.73 31.55 C38.6 30.15, 21.07 31.96, -0.43 31.47 M-0.72 29.14 C-1.96 20.23, -0.3 8, -0.05 -1.26 M0.58 31.92 C1 25.27, 0.94 17.87, 0.3 -0.07" stroke="#000000" stroke-width="2" fill="none"></path></g><g stroke-opacity="0.5" fill-opacity="0.5" transform="translate(768.4441845329613 274.05061041870266) rotate(0 5.5 9.5)"><text x="5.5" y="15" font-family="Cascadia, Segoe UI Emoji" font-size="16px" fill="#000000" text-anchor="middle" style="white-space: pre;" direction="ltr">2</text></g><g stroke-opacity="0.5" fill-opacity="0.5" stroke-linecap="round" transform="translate(745.9441845329613 234.63662458597736) rotate(0 28 15.5)"><path d="M1.53 -0.17 C13.68 0.77, 24.69 -0.42, 55.26 0.04 M0.73 -0.24 C22.35 -0.49, 43.12 0.31, 55.25 0.16 M54.85 0.42 C55.06 10.34, 55.06 16.62, 56.88 29.22 M55.75 -0.81 C55.1 7.86, 55.9 17.23, 56.36 30.79 M54.32 30.36 C38.14 32.63, 20.79 32.65, 0.28 29.65 M56.18 30.12 C39.14 32.24, 21.39 31.78, 0.9 31.09 M-1.93 32.33 C-0.16 23.2, 0.06 11.73, -1.85 -0.16 M0.98 31.7 C0.74 23.54, 0.12 16.52, 0.03 -0.41" stroke="#000000" stroke-width="2" fill="none"></path></g><g stroke-opacity="0.5" fill-opacity="0.5" transform="translate(768.4441845329613 240.63662458597736) rotate(0 5.5 9.5)"><text x="5.5" y="15" font-family="Cascadia, Segoe UI Emoji" font-size="16px" fill="#000000" text-anchor="middle" style="white-space: pre;" direction="ltr">4</text></g><g stroke-opacity="0.5" fill-opacity="0.5" stroke-linecap="round" transform="translate(746.6226349213396 202.24092274607523) rotate(0 28 15.5)"><path d="M1.95 0.79 C18.24 -0.35, 33.27 0.09, 57.63 0.84 M0.98 -0.25 C19.59 0.68, 37.66 0.29, 55.89 -0.03 M55.07 1.37 C54.89 9.64, 56.7 20.12, 55.33 29.68 M55.3 -0.4 C56.03 11.85, 56.29 22.06, 56.22 30.02 M56.19 32.23 C36.04 32.07, 14.59 29.47, 0.1 32.46 M56.23 31.93 C35.68 30.98, 17.13 30.6, -0.1 30.64 M-0.27 32.21 C0.25 23.32, -1.55 17.99, -1.35 1.16 M0.92 30.74 C-0.01 18.78, -0.27 6.28, -0.07 0.03" stroke="#000000" stroke-width="2" fill="none"></path></g><g stroke-opacity="0.5" fill-opacity="0.5" transform="translate(769.1226349213396 208.24092274607523) rotate(0 5.5 9.5)"><text x="5.5" y="15" font-family="Cascadia, Segoe UI Emoji" font-size="16px" fill="#000000" text-anchor="middle" style="white-space: pre;" direction="ltr">7</text></g><g stroke-opacity="0.5" fill-opacity="0.5" stroke-linecap="round" transform="translate(829.7328074975962 300.87110426416206) rotate(0 28 15.5)"><path d="M0.19 0.69 C14.78 0.6, 27.81 1.18, 54.04 0.2 M0.34 -0.95 C12.07 -0.6, 24 0.12, 55.71 -0.95 M55.76 -1.22 C56.67 9.61, 54.55 18.14, 55.3 29.79 M55.19 0.51 C55.64 5.37, 55.98 12.39, 55.91 31.39 M57.37 31.93 C41.5 31.64, 22.16 29.81, 1.89 30.04 M56.86 30.28 C40.24 32.21, 24.66 30.62, -0.73 31.5 M1.83 31.74 C2.05 20.54, -0.15 7.99, -1.88 -1.57 M-0.5 30.81 C0.58 18.56, -0.4 8.8, 0.14 -0.37" stroke="#000000" stroke-width="2" fill="none"></path></g><g stroke-opacity="0.5" fill-opacity="0.5" transform="translate(852.2328074975962 306.87110426416206) rotate(0 5.5 9.5)"><text x="5.5" y="15" font-family="Cascadia, Segoe UI Emoji" font-size="16px" fill="#000000" text-anchor="middle" style="white-space: pre;" direction="ltr">1</text></g><g stroke-opacity="0.5" fill-opacity="0.5" stroke-linecap="round" transform="translate(829.7328074975962 267.4571184314365) rotate(0 28 15.5)"><path d="M0.05 0.85 C17.65 1.23, 36.62 0, 54.18 -1.58 M0.35 -0.26 C20.79 1, 40.15 -0.42, 55.75 -0.04 M56.69 1.09 C54.53 13.13, 55.27 22.87, 54.02 32.65 M55.38 -0.86 C55.48 9.58, 55.66 19.66, 55.86 30.16 M57.49 31.83 C39.27 30.27, 28.14 30.3, -0.43 32.9 M55.84 31.8 C34.93 29.8, 13.37 31.09, 0.54 30.4 M1.87 31.5 C-0.62 22.65, -2.16 14.9, 1.47 -1.18 M0.4 30.14 C-0.43 21.91, 0.29 10.54, -0.66 0.76" stroke="#000000" stroke-width="2" fill="none"></path></g><g stroke-opacity="0.5" fill-opacity="0.5" transform="translate(852.2328074975962 273.4571184314365) rotate(0 5.5 9.5)"><text x="5.5" y="15" font-family="Cascadia, Segoe UI Emoji" font-size="16px" fill="#000000" text-anchor="middle" style="white-space: pre;" direction="ltr">2</text></g><g stroke-opacity="0.5" fill-opacity="0.5" stroke-linecap="round" transform="translate(829.7328074975962 234.04313259871122) rotate(0 28 15.5)"><path d="M-1.65 1.43 C16.77 -0.04, 35.64 -1.82, 57.22 0.68 M0.57 0.47 C11.18 -0.81, 22.71 0.1, 56.88 -0.12 M54.57 1.09 C55.41 6.2, 54.12 16.46, 56.22 29.38 M55.73 -0.06 C55.72 11.26, 55.66 20.91, 55.66 31.69 M54.14 30 C38.48 30.27, 16.75 33.13, 1.48 32.73 M55.88 30.2 C42.49 31.94, 30.99 30.85, -0.66 31.91 M-0.34 29.91 C-2.17 18.97, 1.18 8.91, 0.48 -1.01 M-0.58 31.96 C0.01 21.91, -0.79 14.32, 0.89 -0.22" stroke="#000000" stroke-width="2" fill="none"></path></g><g stroke-opacity="0.5" fill-opacity="0.5" transform="translate(852.2328074975962 240.04313259871122) rotate(0 5.5 9.5)"><text x="5.5" y="15" font-family="Cascadia, Segoe UI Emoji" font-size="16px" fill="#000000" text-anchor="middle" style="white-space: pre;" direction="ltr">4</text></g><g stroke-opacity="0.5" fill-opacity="0.5" stroke-linecap="round" transform="translate(910.6405815902913 299.5962924047236) rotate(0 28 15.5)"><path d="M1.19 0.66 C16.59 1.9, 36.81 0.9, 55.2 -0.3 M-0.97 -0.94 C17.74 0.05, 34.58 -0.05, 55.9 -0.26 M57.38 1.97 C56.19 13.68, 55.1 24.04, 56.72 29.82 M55.76 0.99 C55.68 9.01, 56.85 17.55, 55.72 30.13 M55.71 31.69 C33.58 29.33, 14.55 33.11, 1.94 31.96 M56.6 30.03 C41.94 30.81, 27.39 31.5, -0.47 31.07 M-1.22 32.97 C-0.21 22.15, 1.62 12.83, 0.19 0.65 M-0.97 31.16 C-0.39 24.09, -0.13 18.07, 0.72 -0.15" stroke="#000000" stroke-width="2" fill="none"></path></g><g stroke-opacity="0.5" fill-opacity="0.5" transform="translate(933.1405815902913 305.5962924047236) rotate(0 5.5 9.5)"><text x="5.5" y="15" font-family="Cascadia, Segoe UI Emoji" font-size="16px" fill="#000000" text-anchor="middle" style="white-space: pre;" direction="ltr">1</text></g><g stroke-opacity="0.5" fill-opacity="0.5" stroke-linecap="round" transform="translate(911.6531266155253 265.1697615467641) rotate(0 28 15.5)"><path d="M-0.93 1.72 C16.77 0.53, 29.21 -0.48, 56.09 1.72 M0.69 0.55 C22.3 0.98, 43.55 0.27, 56.96 -0.71 M56.41 1.39 C55.54 11.08, 56.93 22.05, 55.95 31.18 M55.65 -0.21 C56.74 9.86, 55.65 20.63, 56.85 31.81 M55.16 29.16 C39.24 33.14, 21.02 32.15, -0.84 32.25 M56.38 31.05 C41.83 31.2, 26.66 30.53, -0.01 30.81 M-0.27 31.42 C1.75 20.26, 0.38 9.46, -1.84 -1.61 M-0.64 30.54 C-0.08 20.95, 1.02 10.85, -0.38 -0.57" stroke="#000000" stroke-width="2" fill="none"></path></g><g stroke-opacity="0.5" fill-opacity="0.5" transform="translate(934.1531266155253 271.1697615467641) rotate(0 5.5 9.5)"><text x="5.5" y="15" font-family="Cascadia, Segoe UI Emoji" font-size="16px" fill="#000000" text-anchor="middle" style="white-space: pre;" direction="ltr">2</text></g><g stroke-opacity="0.5" fill-opacity="0.5" stroke-linecap="round" transform="translate(985.0979464360676 298.6658362968062) rotate(0 28 15.5)"><path d="M1.85 -1.56 C17.04 0.52, 29.61 0.71, 54.82 -1.12 M0.93 0.17 C13.42 0.22, 24.72 -0.52, 56.39 0.92 M57.63 -1.96 C57.69 10.03, 54.39 22.47, 54.58 29.51 M56.99 -0.55 C56.78 8.92, 56.36 16.36, 56.96 31.3 M56.25 32.7 C38.17 30.94, 20.62 30.02, -1.16 31.03 M55.96 31.27 C40.97 30.61, 24.65 30.96, 0.62 30.79 M-0.23 31.6 C-0.63 22.93, 2.15 13.94, -1.41 0.05 M-0.25 31.16 C0.05 18.13, -0.39 6.24, -0.74 -0.55" stroke="#000000" stroke-width="2" fill="none"></path></g><g stroke-opacity="0.5" fill-opacity="0.5" transform="translate(1007.5979464360676 304.6658362968062) rotate(0 5.5 9.5)"><text x="5.5" y="15" font-family="Cascadia, Segoe UI Emoji" font-size="16px" fill="#000000" text-anchor="middle" style="white-space: pre;" direction="ltr">1</text></g><g stroke-opacity="0.5" fill-opacity="0.5" transform="translate(906.6217711814825 108.71240828453206) rotate(356.9926107815799 165 37.5)"><text x="0" y="19" font-family="Virgil, Segoe UI Emoji" font-size="16px" fill="#000000" text-anchor="start" style="white-space: pre;" direction="ltr">关键点：栈顶元素为4时，下一次循环会判断</text><text x="0" y="44" font-family="Virgil, Segoe UI Emoji" font-size="16px" fill="#000000" text-anchor="start" style="white-space: pre;" direction="ltr">栈顶元素是否有右子树（7），并没有访问过。</text><text x="0" y="69" font-family="Virgil, Segoe UI Emoji" font-size="16px" fill="#000000" text-anchor="start" style="white-space: pre;" direction="ltr">这正是记录元素是否访问过的原因。</text></g><g stroke-linecap="round"><g stroke-opacity="0.5" fill-opacity="0.5" transform="translate(900.2380148908014 147.98416678064223) rotate(0 -20.79611339547 44.956238024980976)"><path d="M-0.13 -0.13 C0.52 0.25, 0.73 0.4, 1.36 0.82 M-0.01 0.04 C0.37 0.26, 0.88 0.45, 1.23 0.68 M1.57 2.69 C-9.56 23.34, -22.74 45.01, -42.73 90.04 M1.64 0.76 C-9.01 22.54, -20.01 45.35, -43.23 87.64" stroke="#000000" stroke-width="2" fill="none"></path></g><g stroke-opacity="0.5" fill-opacity="0.5" transform="translate(900.2380148908014 147.98416678064223) rotate(0 -20.79611339547 44.956238024980976)"><path d="M-40.66 56.19 C-38.84 67.81, -43.08 76.17, -41.94 88.82 M-38.98 58.57 C-41.17 68.32, -41.62 77.56, -43.77 86.91" stroke="#000000" stroke-width="2" fill="none"></path></g><g stroke-opacity="0.5" fill-opacity="0.5" transform="translate(900.2380148908014 147.98416678064223) rotate(0 -20.79611339547 44.956238024980976)"><path d="M-22.59 65.91 C-26.63 74.4, -36.74 79.6, -41.94 88.82 M-20.91 68.29 C-29.35 74.77, -35.99 80.67, -43.77 86.91" stroke="#000000" stroke-width="2" fill="none"></path></g></g><mask></mask><g stroke-opacity="0.5" fill-opacity="0.5" transform="translate(640.0509544935794 18.21155151057998) rotate(356.9926107815799 157.5 37.5)"><text x="0" y="19" font-family="Virgil, Segoe UI Emoji" font-size="16px" fill="#000000" text-anchor="start" style="white-space: pre;" direction="ltr">关键点：栈顶元素为5时，下一次循环会判断</text><text x="0" y="44" font-family="Virgil, Segoe UI Emoji" font-size="16px" fill="#000000" text-anchor="start" style="white-space: pre;" direction="ltr">栈顶元素是否有右子树，并没有访问过。</text><text x="0" y="69" font-family="Virgil, Segoe UI Emoji" font-size="16px" fill="#000000" text-anchor="start" style="white-space: pre;" direction="ltr">而其右子树已经访问过，并被记录</text></g><g stroke-linecap="round"><g stroke-opacity="0.5" fill-opacity="0.5" transform="translate(634.506259849072 53.45839511170874) rotate(0 -7.856746634660567 73.18879662042951)"><path d="M-0.48 1.39 C-2.03 38.37, -9.73 78.97, -15.14 146.91 M-0.74 -0.75 C-6.69 53.35, -12.77 107.59, -15.23 147.13" stroke="#000000" stroke-width="2" fill="none"></path></g><g stroke-opacity="0.5" fill-opacity="0.5" transform="translate(634.506259849072 53.45839511170874) rotate(0 -7.856746634660567 73.18879662042951)"><path d="M-23.72 119.6 C-19.28 125.57, -20.8 135, -15.06 147.35 M-23.98 117.47 C-20.6 128.2, -18.11 139.12, -15.15 147.56" stroke="#000000" stroke-width="2" fill="none"></path></g><g stroke-opacity="0.5" fill-opacity="0.5" transform="translate(634.506259849072 53.45839511170874) rotate(0 -7.856746634660567 73.18879662042951)"><path d="M-3.27 121.22 C-4.24 126.62, -11.18 135.62, -15.06 147.35 M-3.52 119.08 C-7.66 129.27, -12.69 139.59, -15.15 147.56" stroke="#000000" stroke-width="2" fill="none"></path></g></g><mask></mask></svg>