<svg version="1.1" xmlns="http://www.w3.org/2000/svg" viewBox="0 0 375.0719926606415 66.90495790216585" width="375.0719926606415" height="66.90495790216585">
  <!-- svg-source:excalidraw -->
  
  <defs>
    <style class="style-fonts">
      @font-face {
        font-family: "Virgil";
        src: url("https://excalidraw.com/Virgil.woff2");
      }
      @font-face {
        font-family: "Cascadia";
        src: url("https://excalidraw.com/Cascadia.woff2");
      }
    </style>
  </defs>
  <rect x="0" y="0" width="375.0719926606415" height="66.90495790216585" fill="#ffffff"></rect><g stroke-opacity="0.5" fill-opacity="0.5" stroke-linecap="round" transform="translate(10 10.860057218931615) rotate(0 177.53599633032076 22.685155086652117)"><path d="M-0.96 -0.53 C87.64 -1.23, 176.75 -0.57, 355.68 1.04 M-0.09 0.24 C94.15 1.83, 187.36 2.14, 354.85 -0.03 M355.91 -0.53 C355.62 18.64, 356.3 35.54, 353.56 46.02 M355 -0.3 C355.2 10.04, 355.79 19.29, 355.2 44.92 M354.53 45.51 C246.93 43.79, 139.7 43.32, 0.53 45.06 M354.6 44.8 C225.97 43.2, 97.51 43.29, -0.11 45.11 M-0.8 45.22 C-0.6 30.84, -2.02 18.67, -0.52 -1.52 M-0.77 45.75 C0.2 32.81, -0.73 19.55, 0.92 0.01" stroke="#000000" stroke-width="2" fill="none"></path></g><g stroke-linecap="round"><g stroke-opacity="0.5" fill-opacity="0.5" transform="translate(78.05546525995635 10.860057218931615) rotate(0 0.4174645146799776 21.173294370143253)"><path d="M-0.46 0.97 C-0.72 15.09, -0.9 27.75, 1.44 41.84 M0.18 -0.86 C0.48 12.58, -0.09 26.95, 0.3 43.21" stroke="#000000" stroke-width="2" fill="none"></path></g></g><mask></mask><g stroke-linecap="round"><g stroke-opacity="0.5" fill-opacity="0.5" transform="translate(142.16568615701658 13.818990491103591) rotate(0 -0.4202150748742497 21.772434020302512)"><path d="M-1.49 1.64 C0.08 11.29, 2.17 20.4, -1.02 43.02 M0.45 0.46 C0.01 14.01, -0.33 28.38, -0.73 43.09" stroke="#000000" stroke-width="2" fill="none"></path></g></g><mask></mask><g stroke-linecap="round"><g stroke-opacity="0.5" fill-opacity="0.5" transform="translate(208.24852923552487 13.818990491103591) rotate(0 1.08769358350321 20.579454433446642)"><path d="M1 0.84 C1.19 12.57, 2.84 28.98, 2.19 40.1 M-0.05 -0.31 C-0.41 9.67, 0.19 20.8, 0.23 41.47" stroke="#000000" stroke-width="2" fill="none"></path></g></g><mask></mask><g stroke-linecap="round"><g stroke-opacity="0.5" fill-opacity="0.5" transform="translate(282.2218610398253 12.832679400379561) rotate(0 1.3360173600590315 19.632905261319593)"><path d="M0.68 -0.74 C-1.44 8.57, 1.42 19.79, 3.19 40.01 M-0.52 0.78 C0.81 14.59, 1.99 28.26, 1.95 38.69" stroke="#000000" stroke-width="2" fill="none"></path></g></g><mask></mask><g stroke-opacity="0.5" fill-opacity="0.5" transform="translate(21.83573308868813 25.572590124135672) rotate(0 19.5 10)"><text x="0" y="14" font-family="Virgil, Segoe UI Emoji" font-size="16px" fill="#000000" text-anchor="start" style="white-space: pre;" direction="ltr">lchild</text></g><g stroke-opacity="0.5" fill-opacity="0.5" transform="translate(89.89119834864448 25.558901214859702) rotate(0 21.5 10)"><text x="0" y="14" font-family="Virgil, Segoe UI Emoji" font-size="16px" fill="#000000" text-anchor="start" style="white-space: pre;" direction="ltr">LTag</text></g><g stroke-opacity="0.5" fill-opacity="0.5" transform="translate(154.98773033642863 24.572590124135672) rotate(0 21 10)"><text x="0" y="14" font-family="Virgil, Segoe UI Emoji" font-size="16px" fill="#000000" text-anchor="start" style="white-space: pre;" direction="ltr">data</text></g><g stroke-opacity="0.5" fill-opacity="0.5" transform="translate(226.98843995928098 25.558901214859702) rotate(0 22 10)"><text x="0" y="14" font-family="Virgil, Segoe UI Emoji" font-size="16px" fill="#000000" text-anchor="start" style="white-space: pre;" direction="ltr">RTag</text></g><g stroke-opacity="0.5" fill-opacity="0.5" transform="translate(307.8659493986494 26.545212305583618) rotate(0 21 10)"><text x="0" y="14" font-family="Virgil, Segoe UI Emoji" font-size="16px" fill="#000000" text-anchor="start" style="white-space: pre;" direction="ltr">rchild</text></g></svg>